PathFileType	4	(X/Y/Z)	 1.9Hzlow3min.trc
DataRate	CameraRate	NumFrames	NumMarkers	Units	OrigDataRate	OrigDataStartFrame	OrigNumFrames
200	200	10	35	m	200	751	1000
Frame#	Time	C7			LSH			RSH			MAN			RASI			LASI			HIPR			HIPL			RPSI			LPSI			COX			RTHI1			RTHI2			RTHI3			RTHI4			RSHA1			RSHA2			RSHA3			RSHA4			RHEEL			RMET5			RMET1			RTOE			LTHI1			LTHI2			LTHI3			LTHI4			LSHA1			LSHA2			LSHA3			LSHA4			LHEEL			LMET5			LMET1			LTOE			
		X1	Y1	Z1	X2	Y2	Z2	X3	Y3	Z3	X4	Y4	Z4	X5	Y5	Z5	X6	Y6	Z6	X7	Y7	Z7	X8	Y8	Z8	X9	Y9	Z9	X10	Y10	Z10	X11	Y11	Z11	X12	Y12	Z12	X13	Y13	Z13	X14	Y14	Z14	X15	Y15	Z15	X16	Y16	Z16	X17	Y17	Z17	X18	Y18	Z18	X19	Y19	Z19	X20	Y20	Z20	X21	Y21	Z21	X22	Y22	Z22	X23	Y23	Z23	X24	Y24	Z24	X25	Y25	Z25	X26	Y26	Z26	X27	Y27	Z27	X28	Y28	Z28	X29	Y29	Z29	X30	Y30	Z30	X31	Y31	Z31	X32	Y32	Z32	X33	Y33	Z33	X34	Y34	Z34	X35	Y35	Z35	
751	3.7550	-0.295711	1.555385	-0.566224	-0.251101	1.535193	-0.796327	-0.229609	1.529317	-0.364043	-0.141983	1.494087	-0.578601	-0.170183	1.038231	-0.458855	-0.162300	1.032189	-0.676152	-0.220955	1.093150	-0.411981	-0.224015	1.088364	-0.736738	-0.351166	1.081026	-0.516249	-0.354072	1.075172	-0.628453	-0.359458	1.088828	-0.569477	-0.237513	0.790887	-0.367859	-0.213540	0.738789	-0.351460	-0.154375	0.765176	-0.343707	-0.171265	0.821892	-0.361945	-0.298215	0.372172	-0.348763	-0.301249	0.331342	-0.360437	-0.242326	0.330058	-0.345510	-0.242249	0.369198	-0.337672	-0.431261	0.068578	-0.445509	-0.268906	0.026888	-0.334156	-0.209876	0.041481	-0.416019	-0.180600	0.030412	-0.408348	-0.189235	0.789379	-0.789021	-0.163841	0.733464	-0.798570	-0.103919	0.752774	-0.784792	-0.120321	0.810102	-0.773848	-0.228509	0.359548	-0.796507	-0.251505	0.326363	-0.793545	-0.196808	0.297731	-0.780439	-0.179981	0.338432	-0.785810	-0.415826	0.067717	-0.713996	-0.244914	0.025687	-0.806270	-0.187059	0.037784	-0.722185	-0.158453	0.028217	-0.729282	
752	3.7600	-0.295975	1.559322	-0.566169	-0.251327	1.539554	-0.796151	-0.229744	1.533724	-0.363998	-0.142099	1.498579	-0.578550	-0.168892	1.042495	-0.458628	-0.160863	1.036439	-0.675907	-0.219898	1.097480	-0.411844	-0.222542	1.092804	-0.736443	-0.349875	1.084925	-0.516138	-0.352675	1.079131	-0.628416	-0.357785	1.092661	-0.569104	-0.237425	0.794842	-0.367725	-0.213790	0.742567	-0.351327	-0.154350	0.768504	-0.344043	-0.170869	0.825273	-0.362341	-0.300146	0.373864	-0.348814	-0.303094	0.333080	-0.360568	-0.244133	0.332120	-0.345684	-0.244279	0.371207	-0.337810	-0.431137	0.069569	-0.445149	-0.268841	0.026856	-0.334143	-0.209875	0.041465	-0.416033	-0.180660	0.030410	-0.408404	-0.188928	0.793123	-0.788684	-0.163839	0.737064	-0.798080	-0.103933	0.755884	-0.783907	-0.119966	0.813353	-0.773083	-0.230164	0.361535	-0.796314	-0.252959	0.328215	-0.793416	-0.198119	0.299886	-0.780263	-0.181522	0.340693	-0.785551	-0.415711	0.068609	-0.714437	-0.244832	0.025683	-0.806247	-0.187066	0.037751	-0.722147	-0.158492	0.028205	-0.729183	
753	3.7650	-0.296258	1.563508	-0.566131	-0.251527	1.544172	-0.795997	-0.229885	1.538407	-0.363963	-0.142238	1.503310	-0.578494	-0.167544	1.047037	-0.458417	-0.159356	1.040967	-0.675632	-0.218769	1.102063	-0.411695	-0.220984	1.097450	-0.736178	-0.348497	1.089054	-0.516019	-0.351223	1.083346	-0.628372	-0.356129	1.096724	-0.568759	-0.237401	0.799040	-0.367654	-0.214147	0.746576	-0.351218	-0.154427	0.772016	-0.344338	-0.170525	0.828845	-0.362691	-0.302375	0.375587	-0.348942	-0.305056	0.334885	-0.360702	-0.246069	0.334335	-0.345848	-0.246509	0.373338	-0.337943	-0.430995	0.070730	-0.444725	-0.268778	0.026819	-0.334122	-0.209886	0.041448	-0.416042	-0.180738	0.030402	-0.408463	-0.188669	0.797095	-0.788350	-0.163940	0.740883	-0.797611	-0.104026	0.759169	-0.783048	-0.119643	0.816783	-0.772333	-0.231995	0.363589	-0.796158	-0.254548	0.330108	-0.793316	-0.199533	0.302162	-0.780103	-0.183220	0.343087	-0.785329	-0.415585	0.069675	-0.714929	-0.244748	0.025681	-0.806221	-0.187074	0.037717	-0.722110	-0.158548	0.028198	-0.729086	
754	3.7700	-0.296555	1.567921	-0.566113	-0.251707	1.549024	-0.795865	-0.230037	1.543348	-0.363936	-0.142403	1.508259	-0.578430	-0.166160	1.051815	-0.458209	-0.157788	1.045753	-0.675320	-0.217551	1.106861	-0.411542	-0.219400	1.102267	-0.735900	-0.347111	1.093453	-0.515834	-0.349729	1.087794	-0.628324	-0.354506	1.100999	-0.568447	-0.237460	0.803446	-0.367642	-0.214637	0.750783	-0.351174	-0.154618	0.775677	-0.344530	-0.170268	0.832594	-0.362971	-0.304878	0.377386	-0.349125	-0.307117	0.336768	-0.360865	-0.248125	0.336735	-0.346000	-0.248928	0.375665	-0.338049	-0.430815	0.072089	-0.444258	-0.268710	0.026784	-0.334104	-0.209901	0.041432	-0.416044	-0.180830	0.030390	-0.408522	-0.188484	0.801261	-0.788021	-0.164168	0.744868	-0.797165	-0.104222	0.762589	-0.782246	-0.119377	0.820353	-0.771632	-0.234001	0.365736	-0.796038	-0.256269	0.332062	-0.793235	-0.201042	0.304571	-0.779969	-0.185067	0.345640	-0.785151	-0.415429	0.070930	-0.715451	-0.244664	0.025682	-0.806186	-0.187082	0.037680	-0.722074	-0.158617	0.028187	-0.728984	
755	3.7750	-0.296859	1.572543	-0.566114	-0.251886	1.554083	-0.795753	-0.230230	1.548546	-0.363931	-0.142594	1.513400	-0.578363	-0.164735	1.056830	-0.458017	-0.156171	1.050767	-0.674969	-0.216267	1.111879	-0.411381	-0.217796	1.107249	-0.735615	-0.345654	1.098057	-0.515663	-0.348202	1.092461	-0.628274	-0.352943	1.105473	-0.568209	-0.237622	0.808040	-0.367704	-0.215276	0.755171	-0.351188	-0.154975	0.779478	-0.344694	-0.170128	0.836505	-0.363164	-0.307540	0.379377	-0.349326	-0.309250	0.338779	-0.361055	-0.250282	0.339348	-0.346116	-0.251525	0.378234	-0.338153	-0.430578	0.073671	-0.443745	-0.268634	0.026758	-0.334092	-0.209920	0.041419	-0.416039	-0.180935	0.030372	-0.408575	-0.188390	0.805594	-0.787698	-0.164543	0.749008	-0.796714	-0.104539	0.766124	-0.781522	-0.119180	0.824046	-0.770999	-0.236158	0.368006	-0.795949	-0.258114	0.334123	-0.793171	-0.202644	0.307142	-0.779876	-0.187050	0.348363	-0.785023	-0.415229	0.072404	-0.716019	-0.244577	0.025688	-0.806143	-0.187099	0.037637	-0.722052	-0.158698	0.028172	-0.728876	
756	3.7800	-0.297166	1.577352	-0.566135	-0.252054	1.559318	-0.795643	-0.230470	1.553976	-0.363946	-0.142809	1.518713	-0.578290	-0.163284	1.062033	-0.457831	-0.154520	1.055987	-0.674579	-0.214915	1.117067	-0.411217	-0.216181	1.112385	-0.735324	-0.344214	1.102869	-0.515444	-0.346656	1.097328	-0.628225	-0.351435	1.110133	-0.568012	-0.237903	0.812804	-0.367824	-0.216076	0.759721	-0.351283	-0.155519	0.783404	-0.344827	-0.170124	0.840565	-0.363265	-0.310313	0.381557	-0.349566	-0.311431	0.340991	-0.361277	-0.252525	0.342196	-0.346203	-0.254237	0.381032	-0.338315	-0.430267	0.075500	-0.443193	-0.268546	0.026745	-0.334094	-0.209940	0.041407	-0.416026	-0.181049	0.030347	-0.408622	-0.188399	0.810079	-0.787381	-0.165101	0.753271	-0.796302	-0.104980	0.769763	-0.780892	-0.119063	0.827842	-0.770441	-0.238434	0.370455	-0.795881	-0.260062	0.336350	-0.793126	-0.204335	0.309906	-0.779835	-0.189146	0.351286	-0.784950	-0.414967	0.074106	-0.716635	-0.244486	0.025700	-0.806091	-0.187112	0.037597	-0.722038	-0.158786	0.028157	-0.728769	
757	3.7850	-0.297478	1.582311	-0.566170	-0.252218	1.564708	-0.795533	-0.230744	1.559558	-0.363973	-0.143045	1.524176	-0.578211	-0.161836	1.067408	-0.457648	-0.152851	1.061387	-0.674155	-0.213508	1.122415	-0.411056	-0.214549	1.117670	-0.735025	-0.342731	1.107855	-0.515248	-0.345103	1.102368	-0.628171	-0.350014	1.114961	-0.567890	-0.238309	0.817714	-0.368012	-0.217047	0.764409	-0.351464	-0.156243	0.787466	-0.344893	-0.170266	0.844769	-0.363279	-0.313192	0.384005	-0.349874	-0.313640	0.343439	-0.361527	-0.254826	0.345293	-0.346269	-0.257048	0.384082	-0.338479	-0.429870	0.077575	-0.442617	-0.268445	0.026752	-0.334118	-0.209957	0.041399	-0.416001	-0.181169	0.030321	-0.408664	-0.188511	0.814698	-0.787066	-0.165815	0.757651	-0.795891	-0.105547	0.773503	-0.780360	-0.119037	0.831726	-0.769971	-0.240793	0.373131	-0.795828	-0.262086	0.338809	-0.793103	-0.206099	0.312893	-0.779852	-0.191318	0.354435	-0.784930	-0.414619	0.076039	-0.717291	-0.244390	0.025719	-0.806032	-0.187118	0.037565	-0.722035	-0.158887	0.028149	-0.728671	
758	3.7900	-0.297790	1.587412	-0.566218	-0.252385	1.570226	-0.795418	-0.231059	1.565285	-0.364012	-0.143308	1.529764	-0.578128	-0.160396	1.072910	-0.457454	-0.151181	1.066939	-0.673706	-0.212058	1.127897	-0.410906	-0.212905	1.123103	-0.734718	-0.341292	1.113005	-0.514993	-0.343551	1.107570	-0.628122	-0.348598	1.119943	-0.567773	-0.238841	0.822770	-0.368240	-0.218172	0.769223	-0.351720	-0.157152	0.791634	-0.344925	-0.170550	0.849115	-0.363215	-0.315993	0.386692	-0.350218	-0.315840	0.346139	-0.361779	-0.257151	0.348641	-0.346293	-0.259873	0.387442	-0.338610	-0.429374	0.079906	-0.442024	-0.268324	0.026784	-0.334173	-0.209969	0.041397	-0.415966	-0.181292	0.030297	-0.408699	-0.188727	0.819436	-0.786755	-0.166669	0.762127	-0.795479	-0.106229	0.777341	-0.779920	-0.119105	0.835702	-0.769593	-0.243195	0.376080	-0.795785	-0.264157	0.341546	-0.793095	-0.207918	0.316142	-0.779937	-0.193534	0.357837	-0.784957	-0.414175	0.078196	-0.717970	-0.244285	0.025748	-0.805961	-0.187125	0.037533	-0.722054	-0.158989	0.028133	-0.728574	
759	3.7950	-0.298103	1.592628	-0.566276	-0.252564	1.575848	-0.795295	-0.231417	1.571126	-0.364063	-0.143590	1.535437	-0.578041	-0.158959	1.078537	-0.457263	-0.149526	1.072612	-0.673244	-0.210596	1.133509	-0.410766	-0.211253	1.128680	-0.734409	-0.339818	1.118270	-0.514781	-0.342012	1.112908	-0.628072	-0.347200	1.125068	-0.567650	-0.239493	0.827955	-0.368520	-0.219429	0.774167	-0.352029	-0.158232	0.795932	-0.344961	-0.170968	0.853601	-0.363089	-0.318636	0.389687	-0.350547	-0.318032	0.349113	-0.362045	-0.259475	0.352227	-0.346283	-0.262668	0.391060	-0.338771	-0.428765	0.082474	-0.441417	-0.268185	0.026837	-0.334260	-0.209972	0.041401	-0.415918	-0.181415	0.030278	-0.408728	-0.189039	0.824282	-0.786451	-0.167648	0.766728	-0.795098	-0.107008	0.781288	-0.779569	-0.119256	0.839773	-0.769301	-0.245602	0.379323	-0.795748	-0.266247	0.344589	-0.793102	-0.209768	0.319672	-0.780087	-0.195764	0.361501	-0.785026	-0.413626	0.080579	-0.718676	-0.244167	0.025790	-0.805876	-0.187127	0.037506	-0.722099	-0.159093	0.028119	-0.728483	
760	3.8000	-0.298419	1.597927	-0.566338	-0.252754	1.581552	-0.795163	-0.231803	1.577038	-0.364121	-0.143894	1.541177	-0.577949	-0.157506	1.084197	-0.457089	-0.147903	1.078382	-0.672781	-0.209128	1.139224	-0.410636	-0.209598	1.134394	-0.734095	-0.338414	1.123696	-0.514528	-0.340495	1.118356	-0.628021	-0.345827	1.130313	-0.567531	-0.240237	0.833250	-0.368837	-0.220785	0.779231	-0.352382	-0.159439	0.800355	-0.344943	-0.171496	0.858216	-0.362915	-0.321213	0.392916	-0.350940	-0.320206	0.352351	-0.362330	-0.261778	0.356033	-0.346253	-0.265397	0.394891	-0.338877	-0.428045	0.085274	-0.440808	-0.268027	0.026913	-0.334386	-0.209963	0.041411	-0.415853	-0.181532	0.030269	-0.408755	-0.189433	0.829240	-0.786152	-0.168726	0.771429	-0.794742	-0.107870	0.785349	-0.779294	-0.119481	0.843945	-0.769081	-0.247984	0.382858	-0.795711	-0.268325	0.347934	-0.793123	-0.211616	0.323475	-0.780289	-0.197974	0.365434	-0.785132	-0.412958	0.083195	-0.719404	-0.244031	0.025849	-0.805770	-0.187117	0.037488	-0.722170	-0.159196	0.028112	-0.728415	
